<?xml version="1.0" ?><!DOCTYPE svg  PUBLIC '-//W3C//DTD SVG 1.0//EN'  'http://www.w3.org/TR/2001/REC-SVG-20010904/DTD/svg10.dtd'><svg height="64px" style="shape-rendering:geometricPrecision; text-rendering:geometricPrecision; image-rendering:optimizeQuality; fill-rule:evenodd; clip-rule:evenodd" version="1.0" viewBox="0 0 10625 17644" width="39px" xml:space="preserve" xmlns="http://www.w3.org/2000/svg" xmlns:xlink="http://www.w3.org/1999/xlink"><defs><style type="text/css">
   <![CDATA[
    .fil0 {fill:#27afb7;fill-rule:nonzero}
   ]]>
  </style></defs><g id="Layer_x0020_1"><path class="fil0" d="M3108 15601l0 -3441c-340,-1660 -1057,-2621 -1705,-3491 -742,-995 -1403,-1881 -1403,-3510 0,-1276 627,-2631 1657,-3630 938,-910 2213,-1529 3656,-1529 1442,0 2717,619 3655,1529 1030,999 1657,2354 1657,3630 0,1625 -662,2517 -1406,3518 -647,871 -1360,1832 -1700,3476l0 3449c113,36 214,99 296,181l1 -1c133,133 215,316 215,518 0,202 -82,386 -215,519l-1 -1c-133,133 -317,216 -518,216l-489 0 -2 336c0,151 -124,274 -275,274 -151,0 -274,-124 -274,-275l2 -334 -1891 0 -2 336c0,151 -124,274 -275,274 -151,0 -274,-124 -274,-275l2 -334 -490 0c-201,0 -385,-83 -518,-216l-1 1c-133,-133 -215,-317 -215,-519 0,-202 82,-386 215,-518 82,-82 184,-145 298,-181zm2182 -9313l22 -1 10 0 54 -3c151,-13 297,-52 419,-113 182,-92 310,-237 310,-421 0,-134 -32,-228 -80,-293 -62,-83 -159,-134 -258,-164 -148,-45 -300,-42 -450,-40 -194,4 -390,7 -619,-63l0 0c-176,-54 -355,-147 -493,-305 -141,-161 -236,-380 -236,-678 0,-418 254,-729 614,-911 138,-70 293,-120 453,-149l0 -1110c0,-152 124,-276 276,-276 152,0 276,124 276,276l0 1096c92,12 183,31 271,57 438,132 807,442 911,964 30,149 -67,294 -217,324 -149,30 -294,-67 -324,-217 -58,-291 -272,-468 -528,-544 -117,-35 -243,-50 -369,-48l-5 0 -2 0 -5 0 -9 0 -5 0 -2 0 -56 4c-151,13 -297,52 -419,113 -182,92 -310,237 -310,420 0,148 39,249 98,316 61,70 150,115 240,142l1 0 0 0c148,46 299,43 449,40 194,-3 388,-7 618,63 197,60 397,169 540,362 115,156 190,359 190,621 0,418 -254,730 -614,912 -139,70 -294,120 -455,149l0 1342c0,152 -124,276 -276,276 -152,0 -276,-124 -276,-276l0 -1328c-92,-12 -182,-31 -270,-57 -438,-132 -807,-443 -911,-965 -30,-149 67,-294 217,-324 149,-30 294,67 324,217 58,291 272,468 527,544 114,34 238,50 361,48l6 0zm-1633 8049l3310 0 0 -2205 0 -22 7 -32c363,-1787 1119,-2805 1804,-3728 685,-923 1296,-1745 1296,-3191 0,-1130 -564,-2339 -1489,-3236 -842,-816 -1983,-1371 -3272,-1371 -1289,0 -2430,555 -3272,1371 -925,897 -1489,2106 -1489,3236 0,1447 609,2263 1293,3180 685,920 1444,1936 1808,3738l5 26 0 28 0 2205zm3310 552l-3310 0 0 679 3310 0 0 -679zm330 1231l-3968 0c-49,0 -95,21 -128,54 -33,33 -54,79 -54,128 0,50 21,96 54,129l0 1c32,32 78,52 128,52l3968 0c50,0 96,-20 128,-52l0 -1c33,-33 54,-79 54,-129 0,-49 -21,-95 -54,-128l0 -1c-32,-32 -78,-52 -128,-52z"/></g></svg>